<?xml version="1.0" encoding="UTF-8"?>
<!DOCTYPE svg PUBLIC "-//W3C//DTD SVG 1.1//EN" "http://www.w3.org/Graphics/SVG/1.1/DTD/svg11.dtd">
<svg xmlns="http://www.w3.org/2000/svg" xmlns:xlink="http://www.w3.org/1999/xlink">
  <symbol id="sprite-android" viewBox="0 0 42.084 47.041">
    <path fill="#A4C639" d="M34.144,14.009H7.945c-0.009,0.11-0.018,0.22-0.018,0.333v18.755c0,1.926,1.457,3.49,3.316,3.627v7.43 c0,1.594,1.291,2.885,2.885,2.885c1.593,0,2.885-1.291,2.885-2.885v-7.42h8.058v7.42c0,1.594,1.291,2.885,2.885,2.885 c1.595,0,2.886-1.291,2.886-2.885v-7.434c1.858-0.137,3.315-1.701,3.315-3.627V14.342C34.157,14.229,34.153,14.119,34.144,14.009z"/>
    <path id="c-4-9-2-9-2-9" fill="#A4C639" d="M2.886,15.679L2.886,15.679c1.593,0,2.886,1.292,2.886,2.885v12.378 c0,1.595-1.292,2.886-2.886,2.886l0,0C1.292,33.828,0,32.537,0,30.942V18.564C0,16.97,1.292,15.679,2.886,15.679z"/>
    <path id="c-4-1-7-3-8-4" fill="#A4C639" d="M39.198,15.679L39.198,15.679c1.595,0,2.886,1.292,2.886,2.885v12.378 c0,1.595-1.291,2.886-2.886,2.886l0,0c-1.594,0-2.885-1.291-2.885-2.886V18.564C36.313,16.97,37.604,15.679,39.198,15.679z"/>
    <path fill="#A4C639" d="M8.03,11.967h26.026c-0.039-2.783-1.234-5.322-3.187-7.275l2.446-4.235c0.082-0.146,0.031-0.331-0.112-0.415 c-0.146-0.084-0.331-0.034-0.415,0.111L30.416,4.26c-2.052-1.853-6.249-3.4-9.374-3.4l0,0c-3.016,0-7.322,1.547-9.374,3.4 L9.296,0.152C9.213,0.007,9.027-0.042,8.881,0.041C8.736,0.125,8.686,0.311,8.77,0.456l2.445,4.235 C9.265,6.645,8.068,9.184,8.03,11.967z M25.323,6.804c-0.002-0.805,0.664-1.46,1.488-1.462c0.826-0.002,1.494,0.648,1.498,1.454 c0,0.002,0,0.005,0,0.008c0.002,0.805-0.664,1.46-1.49,1.462c-0.823,0.002-1.493-0.649-1.496-1.454 C25.323,6.81,25.323,6.807,25.323,6.804z M14.18,6.804c-0.001-0.805,0.665-1.46,1.489-1.462c0.824-0.002,1.494,0.648,1.497,1.454 c0,0.002,0,0.005,0,0.008c0.002,0.805-0.664,1.46-1.488,1.462c-0.825,0.002-1.495-0.649-1.498-1.454 C14.18,6.81,14.18,6.807,14.18,6.804z"/>
  </symbol>
  <symbol id="sprite-apple" viewBox="0 0 46.21 56.753">
    <path fill="#FFFFFF" d="M38.593,30.15c0.081,8.59,7.535,11.447,7.617,11.483c-0.062,0.202-1.19,4.073-3.927,8.072 c-2.365,3.457-4.82,6.901-8.688,6.973c-3.799,0.07-5.021-2.253-9.365-2.253c-4.344,0-5.702,2.182-9.298,2.32 c-3.733,0.142-6.576-3.739-8.961-7.184c-4.875-7.046-8.598-19.91-3.597-28.593c2.484-4.313,6.925-7.043,11.743-7.114 c3.666-0.069,7.126,2.466,9.366,2.466c2.241,0,6.444-3.049,10.865-2.601c1.85,0.077,7.044,0.747,10.38,5.629 C44.459,19.519,38.531,22.971,38.593,30.15 M31.453,9.062C33.435,6.662,34.769,3.323,34.405,0c-2.857,0.115-6.312,1.904-8.36,4.302 c-1.837,2.123-3.445,5.521-3.011,8.778C26.218,13.326,29.47,11.461,31.453,9.062"/>
  </symbol>
  <symbol id="sprite-arrow-left" viewBox="0 0 21.706 41.719">
    <path d="M2.045,20.859L21.458,1.446c0.331-0.331,0.331-0.867,0-1.198c-0.33-0.331-0.867-0.331-1.197,0L0.248,20.261 c-0.331,0.33-0.331,0.867,0,1.197l20.013,20.013c0.164,0.165,0.382,0.248,0.599,0.248s0.434-0.083,0.599-0.248 c0.331-0.331,0.331-0.867,0-1.198L2.045,20.859z"/>
  </symbol>
  <symbol id="sprite-arrow-right" viewBox="0 0 21.706 41.719">
    <path d="M19.661,20.859L0.248,1.446c-0.331-0.331-0.331-0.867,0-1.198c0.33-0.331,0.867-0.331,1.197,0l20.013,20.012 c0.33,0.33,0.33,0.867,0,1.197L1.445,41.471c-0.164,0.165-0.382,0.248-0.599,0.248s-0.434-0.083-0.599-0.248 c-0.331-0.331-0.331-0.867,0-1.198L19.661,20.859z"/>
  </symbol>
  <symbol id="sprite-contrast" viewBox="0 0 16 16">
    <path d="M8 2C9.18669 2 10.3467 2.35189 11.3334 3.01118C12.3201 3.67047 13.0892 4.60754 13.5433 5.7039C13.9974 6.80025 14.1162 8.00665 13.8847 9.17054C13.6532 10.3344 13.0818 11.4035 12.2426 12.2426C11.4035 13.0818 10.3344 13.6532 9.17054 13.8847C8.00666 14.1162 6.80026 13.9974 5.7039 13.5433C4.60755 13.0891 3.67047 12.3201 3.01119 11.3334C2.3519 10.3467 2 9.18669 2 8C2 6.4087 2.63214 4.88258 3.75736 3.75736C4.88258 2.63214 6.4087 2 8 2ZM8 0C6.41775 0 4.87103 0.469192 3.55544 1.34824C2.23985 2.22729 1.21447 3.47672 0.608967 4.93853C0.00346625 6.40034 -0.15496 8.00887 0.153721 9.56072C0.462403 11.1126 1.22433 12.538 2.34315 13.6569C3.46197 14.7757 4.88743 15.5376 6.43928 15.8463C7.99113 16.155 9.59966 15.9965 11.0615 15.391C12.5233 14.7855 13.7727 13.7602 14.6518 12.4446C15.5308 11.129 16 9.58225 16 8C16 5.87827 15.1571 3.84344 13.6569 2.34315C12.1566 0.842855 10.1217 0 8 0Z"/>
    <path d="M8 12.145C9.07679 12.0711 10.0854 11.5912 10.822 10.8023C11.5586 10.0134 11.9683 8.97432 11.9683 7.895C11.9683 6.81567 11.5586 5.77659 10.822 4.98769C10.0854 4.1988 9.07679 3.71891 8 3.645"/>
  </symbol>
  <symbol id="sprite-crop" viewBox="0 0 22 22">
    <path d="M16 14H18V6C18 5.46957 17.7893 4.96086 17.4142 4.58579C17.0391 4.21071 16.5304 4 16 4H8V6H16V14ZM6 16V0H4V4H0V6H4V16C4 16.5304 4.21071 17.0391 4.58579 17.4142C4.96086 17.7893 5.46957 18 6 18H16V22H18V18H22V16H6Z"/>
  </symbol>
  <symbol id="sprite-facebook" viewBox="0 0 9 18">
      <path d="M6.50865 3.19324H9V0H6.02076C2.76125 0.171067 1.59862 2.27138 2.07612 5.81626H0V9.15206H2.07612V18H6.02076V9.15206H8.97924V5.81626H6.01038C5.98962 4.81837 5.96886 3.52587 6.50865 3.19324Z" fill="#D22856"/>
  </symbol>
  <symbol id="sprite-fill" viewBox="0 0 24 22">
    <path d="M16.56 9.14791L7.62 0L6.205 1.44791L8.585 3.88326L3.44 9.14791C3.1591 9.4357 3.00132 9.82581 3.00132 10.2326C3.00132 10.6393 3.1591 11.0294 3.44 11.3172L8.94 16.9451C9.22125 17.2325 9.6025 17.394 10 17.394C10.3975 17.394 10.7787 17.2325 11.06 16.9451L16.56 11.3172C16.8409 11.0294 16.9987 10.6393 16.9987 10.2326C16.9987 9.82581 16.8409 9.4357 16.56 9.14791ZM5.205 10.2326L10 5.33116L14.795 10.2326H5.205ZM19 11.7674C19 11.7674 17 13.9828 17 15.3488C17 15.8916 17.2107 16.4121 17.5858 16.7959C17.9609 17.1797 18.4696 17.3953 19 17.3953C19.5304 17.3953 20.0391 17.1797 20.4142 16.7959C20.7893 16.4121 21 15.8916 21 15.3488C21 13.9828 19 11.7674 19 11.7674Z"/>
    <path d="M24 20.4651H0V22H24V20.4651Z"/>
  </symbol>
  <symbol id="sprite-heart" viewBox="0 0 13 12">
    <path d="M6.46867 12C6.3589 12.0014 6.25012 11.9798 6.14988 11.9367C6.04963 11.8935 5.96033 11.8298 5.88815 11.75C1.95926 7.42 1.03665 6.44 0.860416 6.17C0.307088 5.49497 0.00416162 4.66056 0 3.8C0.00441359 3.07425 0.223059 2.36473 0.63034 1.7545C1.03762 1.14428 1.61668 0.658598 2.29973 0.354328C2.98278 0.0500576 3.74155 -0.0602132 4.48721 0.036425C5.23287 0.133063 5.93456 0.432611 6.51014 0.9C7.22774 0.319491 8.13412 0.00090711 9.07066 0C10.1136 0.00264761 11.1129 0.404172 11.8494 1.11652C12.5859 1.82888 12.9995 2.79391 12.9995 3.8C13.014 4.67715 12.6845 5.5272 12.0769 6.18L7.03883 11.74C6.9678 11.8185 6.88016 11.8814 6.78182 11.9246C6.68348 11.9677 6.5767 11.99 6.46867 11.99V12ZM2.07329 5.28C2.29099 5.54 4.63381 8.12 6.46867 10.14L10.947 5.2C11.3073 4.81798 11.5005 4.3163 11.486 3.8C11.486 3.18205 11.2316 2.5894 10.7786 2.15244C10.3256 1.71548 9.71126 1.47 9.07066 1.47C8.69007 1.47297 8.31512 1.55909 7.97398 1.7219C7.63285 1.8847 7.33439 2.11996 7.10103 2.41C7.02566 2.49603 6.9321 2.56553 6.82661 2.61382C6.72113 2.66211 6.60615 2.68809 6.48941 2.69C6.37337 2.68847 6.25936 2.6605 6.15667 2.60836C6.05398 2.55622 5.96552 2.4814 5.89852 2.39C5.66784 2.10104 5.37087 1.86758 5.03093 1.70796C4.69099 1.54833 4.31732 1.46688 3.93926 1.47C3.48505 1.47534 3.04153 1.6036 2.65919 1.84016C2.27684 2.07673 1.97103 2.41211 1.77658 2.8081C1.58213 3.2041 1.50684 3.64481 1.5593 4.08006C1.61176 4.5153 1.78985 4.9276 2.07329 5.27V5.28Z" fill="#D22856"/>
  </symbol>
  <symbol id="sprite-htmlacademy" width="27" height="34" viewBox="0 0 27 34" xmlns="http://www.w3.org/2000/svg">
    <path d="M13.6426 0.0157537L13.5 0L0 1.40733V26.0129L13.5 34L27 26.0129V1.40733L13.6426 0.0157537ZM25.2344 25.0151L13.5 31.9573L1.76561 25.0151V14.9293L13.4507 21.8451L13.4701 23.0984L5.45351 18.3548L5.44295 19.5801L13.4894 24.3885L13.5088 25.675L5.46408 20.9174L5.45351 22.1427L13.5 26.9511L21.6239 22.1182V20.8929V16.909L25.2432 14.7595L25.2344 25.0151ZM25.2344 13.4519L22.0147 15.3319L20.5325 16.2071L13.4666 12.0201L13.456 13.2454L19.4957 16.818L19.4429 16.8495L19.3126 16.9247L18.4536 17.4166L13.4666 14.4689L13.456 15.6942L17.3921 18.0222L16.4591 18.6314L16.438 18.6436L13.4666 16.902L13.456 18.1273L15.4029 19.2615L13.4155 20.4483L1.7973 13.5762L13.4349 6.61831L25.2344 13.4519ZM25.2344 12.2266L13.4401 5.31075L1.76561 12.2196V2.9897L13.5 1.76442L25.2344 2.9897V12.2266Z"/>
  </symbol>
  <symbol id="sprite-microsoft" viewBox="0 0 43.922 41.992">
    <g>
      <path id="path5058" fill="#F05423" d="M20.874,19.953H0V0h20.874V19.953z"/>
      <path id="path5060" fill="#84C441" d="M43.922,19.953H23.049V0h20.873V19.953z"/>
      <path id="path5062" fill="#2DABE2" d="M20.873,41.992H0V22.04h20.873V41.992z"/>
      <path id="path5064" fill="#F9BC15" d="M43.922,41.992H23.049V22.04h20.873V41.992z"/>
    </g>
  </symbol>
  <symbol id="sprite-no" viewBox="0 0 26.752 26.752">
    <path d="M15.497,13.376L26.312,2.562c0.586-0.585,0.586-1.535,0-2.121s-1.535-0.586-2.121,0L13.376,11.255L2.562,0.439 c-0.586-0.586-1.535-0.586-2.121,0c-0.586,0.585-0.586,1.535,0,2.121l10.814,10.815L0.439,24.19c-0.586,0.586-0.586,1.535,0,2.121 c0.293,0.293,0.677,0.439,1.061,0.439s0.768-0.146,1.061-0.439l10.815-10.814L24.19,26.312c0.293,0.293,0.677,0.439,1.061,0.439 s0.768-0.146,1.061-0.439c0.586-0.586,0.586-1.535,0-2.121L15.497,13.376z"/>
  </symbol>
  <symbol id="sprite-phone" viewBox="0 0 20 19">
    <path d="M10.0408 0C6.46361 0 2.90684 0.608386 1.58197 1.8155C0.624506 2.9164 0.0701613 4.28212 0.00231714 5.70724C-0.000772379 5.76193 -0.000772379 5.81673 0.00231714 5.87141C0.00231714 6.08143 0.0903626 6.28284 0.247084 6.43135C0.403806 6.57985 0.616367 6.66328 0.838005 6.66328L4.07884 6.4122H4.16037C4.26878 6.41094 4.37587 6.38946 4.47551 6.34898C4.57516 6.3085 4.66541 6.24982 4.74112 6.17628C4.81683 6.10275 4.87651 6.0158 4.91676 5.92041C4.95701 5.82502 4.97703 5.72305 4.97568 5.62033V4.04625C4.97433 3.93131 4.99706 3.81725 5.04255 3.71069C5.08804 3.60412 5.15539 3.50717 5.2407 3.42544C5.326 3.34371 5.42757 3.27882 5.53952 3.23454C5.65148 3.19026 5.77159 3.16746 5.8929 3.16747H14.046C14.2919 3.16747 14.5278 3.26006 14.7017 3.42486C14.8757 3.58966 14.9734 3.81318 14.9734 4.04625V5.60102C14.9733 5.80773 15.0585 6.00627 15.2109 6.15423C15.3632 6.30219 15.5706 6.38784 15.7887 6.39288H15.8804L19.162 6.64396C19.2717 6.64396 19.3804 6.62348 19.4818 6.58369C19.5832 6.54389 19.6753 6.48556 19.7529 6.41203C19.8305 6.3385 19.8921 6.2512 19.9341 6.15513C19.9761 6.05906 19.9977 5.95609 19.9977 5.8521C20.0008 5.79741 20.0008 5.74261 19.9977 5.68793C19.9242 4.27608 19.378 2.92311 18.4384 1.82516C17.1951 0.608386 13.6179 0 10.0408 0ZM10.0408 10.3039C9.7102 10.3039 9.38705 10.3968 9.1122 10.5708C8.83734 10.7449 8.62312 10.9922 8.49662 11.2816C8.37011 11.571 8.33701 11.8894 8.4015 12.1966C8.46599 12.5039 8.62518 12.7861 8.85892 13.0075C9.09267 13.229 9.39048 13.3799 9.7147 13.441C10.0389 13.5021 10.375 13.4707 10.6804 13.3509C10.9858 13.231 11.2468 13.028 11.4305 12.7676C11.6141 12.5071 11.7121 12.2009 11.7121 11.8877C11.7135 11.6793 11.6712 11.4728 11.5877 11.2801C11.5042 11.0874 11.3811 10.9123 11.2256 10.7649C11.0702 10.6176 10.8854 10.501 10.682 10.4219C10.4786 10.3427 10.2606 10.3027 10.0408 10.3039ZM8.78723 6.75985V5.79416C8.78723 5.53804 8.67986 5.29241 8.48874 5.11131C8.29761 4.9302 8.03839 4.82846 7.7681 4.82846C7.49781 4.82846 7.23859 4.9302 7.04747 5.11131C6.85634 5.29241 6.74897 5.53804 6.74897 5.79416V6.75985L1.02145 12.4478C0.818967 12.6306 0.658375 12.8511 0.54967 13.0953C0.440965 13.3395 0.386473 13.6023 0.389587 13.8673V15.4511C0.389579 15.872 0.565344 16.2758 0.878498 16.5744C1.19165 16.8729 1.61675 17.0419 2.06096 17.0445H2.47881V18.0102C2.47881 18.1402 2.50583 18.2689 2.55832 18.389C2.61082 18.5091 2.68777 18.6182 2.78477 18.7101C2.88177 18.802 2.99692 18.8749 3.12366 18.9247C3.2504 18.9744 3.38624 19 3.52342 19C3.6606 19 3.79643 18.9744 3.92317 18.9247C4.04991 18.8749 4.16507 18.802 4.26207 18.7101C4.35907 18.6182 4.43601 18.5091 4.48851 18.389C4.54101 18.2689 4.56803 18.1402 4.56803 18.0102V17.0445H15.4727V18.0102C15.4727 18.2727 15.5828 18.5245 15.7787 18.7101C15.9746 18.8957 16.2403 19 16.5173 19C16.7944 19 17.0601 18.8957 17.256 18.7101C17.4519 18.5245 17.562 18.2727 17.562 18.0102V17.0445H17.9798C18.2001 17.0445 18.4183 17.0032 18.6218 16.923C18.8252 16.8428 19.0099 16.7253 19.1653 16.5772C19.3206 16.4291 19.4435 16.2534 19.5269 16.0601C19.6103 15.8669 19.6525 15.6599 19.6512 15.4511V13.8673C19.6556 13.603 19.6027 13.3406 19.4958 13.0964C19.3888 12.8523 19.2301 12.6315 19.0295 12.4478L13.3835 6.75985V5.79416C13.3835 5.53163 13.2735 5.27987 13.0776 5.09424C12.8817 4.90861 12.616 4.80432 12.3389 4.80432C12.0619 4.80432 11.7962 4.90861 11.6003 5.09424C11.4044 5.27987 11.2943 5.53163 11.2943 5.79416V6.75985H8.78723ZM10.0408 8.69123C10.7019 8.69123 11.3482 8.877 11.8979 9.22505C12.4476 9.57309 12.8761 10.0678 13.1291 10.6466C13.3821 11.2253 13.4483 11.8622 13.3193 12.4766C13.1903 13.0911 12.8719 13.6555 12.4044 14.0984C11.937 14.5414 11.3413 14.8431 10.6929 14.9653C10.0445 15.0875 9.37236 15.0248 8.76155 14.7851C8.15074 14.5453 7.62867 14.1393 7.26137 13.6185C6.89406 13.0976 6.69801 12.4852 6.69801 11.8587C6.69801 11.0186 7.05019 10.213 7.67708 9.61896C8.30397 9.02495 9.15421 8.69123 10.0408 8.69123Z" fill="#D22856"/>
  </symbol>
  <symbol id="sprite-quotes" viewBox="0 0 78.672 63.789">
    <g>
      <path d="M34.967,7.063L30.713,0C28.272,1.495,0,12.207,0,39.617c0,7.231,0.336,24.172,18.9,24.172 c11.187,0,13.94-10.279,13.94-13.584c0-21.977-21.382-14.177-21.382-14.177C11.458,17.957,31.263,9.184,34.967,7.063z"/>
    </g>
    <g>
      <path d="M78.672,7.063L74.418,0c-2.44,1.495-30.713,12.207-30.713,39.617c0,7.231,0.337,24.172,18.9,24.172 c11.187,0,13.939-10.279,13.939-13.584c0-21.977-21.381-14.177-21.381-14.177C55.165,17.957,74.969,9.184,78.672,7.063z"/>
    </g>
  </symbol>
  <symbol id="sprite-tick" viewBox="0 0 22 16">
    <path d="M21.7001 0.284331C21.5105 0.102082 21.2557 0 20.9903 0C20.7249 0 20.47 0.102082 20.2805 0.284331L6.70324 13.6028L1.73472 8.72901C1.64045 8.63578 1.52831 8.56178 1.40474 8.51128C1.28118 8.46079 1.14865 8.43479 1.01479 8.43479C0.88093 8.43479 0.748397 8.46079 0.624833 8.51128C0.50127 8.56178 0.389122 8.63578 0.294859 8.72901C0.106004 8.91537 0 9.16747 0 9.43024C0 9.69302 0.106004 9.94512 0.294859 10.1315L5.98331 15.7115C6.07806 15.8037 6.19042 15.8767 6.31396 15.9262C6.4375 15.9756 6.56979 16.0007 6.70324 16C6.96925 15.9989 7.22416 15.8953 7.41303 15.7115L21.7001 1.69675C21.7951 1.60428 21.8705 1.49427 21.922 1.37306C21.9735 1.25186 22 1.12185 22 0.990541C22 0.859234 21.9735 0.729226 21.922 0.608017C21.8705 0.486809 21.7951 0.376798 21.7001 0.284331Z" fill="#D22856"/>
  </symbol>
  <symbol id="sprite-timer" viewBox="0 0 298 345">
    <path d="M264.586 102.035L269.936 96.676C277.656 88.9579 279.066 77.7407 273.066 71.7522C267.066 65.7637 255.846 67.1533 248.136 74.8714L242.746 80.2601C221.304 62.8474 195.42 51.7734 168.016 48.288V38.7004H175.676C186.586 38.7004 195.516 29.9925 195.516 19.3552C195.516 8.71783 186.586 0 175.676 0H122.356C111.446 0 102.516 8.70784 102.516 19.3552C102.516 30.0025 111.446 38.7004 122.356 38.7004H130.016V48.288C97.2841 52.4916 66.8739 67.4402 43.5572 90.7884C20.2404 114.137 5.33669 144.563 1.18437 177.294C-2.96795 210.025 3.86613 243.208 20.6143 271.636C37.3625 300.065 63.0771 322.13 93.7233 334.37C124.369 346.61 158.213 348.332 189.944 339.266C221.675 330.199 249.497 310.858 269.046 284.277C288.594 257.695 298.763 225.377 297.956 192.394C297.149 159.411 285.412 127.629 264.586 102.035ZM149.016 306.184C127.226 306.184 105.926 299.724 87.8082 287.621C69.6906 275.518 55.5699 258.315 47.2316 238.189C38.8934 218.062 36.7123 195.916 40.964 174.55C45.2158 153.184 55.7094 133.558 71.118 118.155C86.5265 102.752 106.158 92.2625 127.529 88.0138C148.901 83.765 171.053 85.9477 191.184 94.2856C211.314 102.624 228.52 116.742 240.624 134.857C252.729 152.971 259.188 174.267 259.186 196.051C259.184 225.261 247.575 253.274 226.915 273.927C206.254 294.581 178.234 306.184 149.016 306.184Z" fill="#DEDEDE"/>
    <circle cx="149" cy="196" r="117" stroke="#D22856" stroke-width="18"/>
    <path d="M145.133 239H85.25V226.402L106.754 204.664C113.121 198.141 117.281 193.629 119.234 191.129C121.188 188.59 122.594 186.246 123.453 184.098C124.312 181.949 124.742 179.723 124.742 177.418C124.742 173.98 123.785 171.422 121.871 169.742C119.996 168.062 117.477 167.223 114.312 167.223C110.992 167.223 107.77 167.984 104.645 169.508C101.52 171.031 98.2578 173.199 94.8594 176.012L85.0156 164.352C89.2344 160.758 92.7305 158.219 95.5039 156.734C98.2773 155.25 101.305 154.117 104.586 153.336C107.867 152.516 111.539 152.105 115.602 152.105C120.953 152.105 125.68 153.082 129.781 155.035C133.883 156.988 137.066 159.723 139.332 163.238C141.598 166.754 142.73 170.777 142.73 175.309C142.73 179.254 142.027 182.965 140.621 186.441C139.254 189.879 137.105 193.414 134.176 197.047C131.285 200.68 126.168 205.855 118.824 212.574L107.809 222.945V223.766H145.133V239ZM215.621 221.246H205.309V239H187.613V221.246H151.051V208.648L188.609 153.336H205.309V207.184H215.621V221.246ZM187.613 207.184V192.652C187.613 190.23 187.711 186.715 187.906 182.105C188.102 177.496 188.258 174.82 188.375 174.078H187.906C186.461 177.281 184.723 180.406 182.691 183.453L166.988 207.184H187.613Z" fill="#D22856"/>
  </symbol>
  <symbol id="sprite-twitter" viewBox="0 0 18 14">
    <path d="M11.5641 0.168904C12.2458 -0.0461515 12.9837 -0.0560928 13.6719 0.140507C14.3602 0.337107 14.9633 0.730138 15.3947 1.26319C16.1053 1.05385 16.8055 0.815959 17.5263 0.606617C17.5164 0.925848 17.4299 1.23907 17.2732 1.52372C17.1165 1.80837 16.8935 2.05738 16.6201 2.2528C16.8726 2.27877 17.1281 2.25112 17.3673 2.17197C17.6064 2.09281 17.8228 1.96424 18 1.79606C17.901 2.20987 17.6999 2.59695 17.4123 2.92708C17.1247 3.2572 16.7585 3.52144 16.3421 3.69916C16.095 9.96988 12.9748 14.1662 5.65332 13.9949H5.14874C4.70595 13.9949 0.731121 13.5667 0 12.2441C1.75201 12.4899 3.53888 12.0976 4.98398 11.1498C3.95423 10.8643 2.13158 10.7026 1.82265 8.40934C2.2108 8.54337 2.6321 8.57306 3.03776 8.49498C1.76087 7.70519 0.339817 7.0391 0.422197 4.99327C0.819634 5.29882 1.3269 5.45507 1.84325 5.43098C1.10183 5.20261 -0.24714 2.30989 0.895881 0.825474C2.82151 2.54778 4.86041 4.17493 8.48512 4.3367C8.71167 2.20522 9.68993 0.777896 11.5641 0.168904Z" fill="#D22856"/>
  </symbol>
  <symbol id="sprite-yes" viewBox="-82.357 4.875 21.698 16.09">
    <path fill="#3dc644" d="M-60.953,5.167c-0.391-0.391-1.023-0.391-1.414,0L-75.75,18.551l-4.9-4.9c-0.391-0.391-1.023-0.391-1.414,0 s-0.391,1.023,0,1.414l5.607,5.607c0.195,0.195,0.451,0.293,0.707,0.293s0.512-0.098,0.707-0.293l14.09-14.0 C-60.562,6.191-60.562,5.558-60.953,5.167z"/>
  </symbol>
  <symbol id="sprite-youtube" viewBox="0 0 15 13">
    <path d="M1.83356 12.8089C1.64633 12.9278 1.42471 12.9941 1.19626 12.9996C0.967817 13.0051 0.74263 12.9495 0.548717 12.8398C0.354804 12.7301 0.200724 12.571 0.105646 12.3824C0.010569 12.1938 -0.0213097 11.984 0.0139762 11.779V1.22097C-0.0213097 1.01605 0.010569 0.806234 0.105646 0.617628C0.200724 0.429021 0.354804 0.269949 0.548717 0.1602C0.74263 0.0504516 0.967817 -0.00512927 1.19626 0.000372265C1.42471 0.0058738 1.64633 0.0722149 1.83356 0.191142L14.2333 5.69284C15.2556 6.13817 15.2556 6.86183 14.2333 7.30716L1.83356 12.8089Z" fill="#D22856"/>
  </symbol>
</svg>
